<?xml version="1.0" encoding="utf-8"?>
<!-- Generator: Adobe Illustrator 27.5.0, SVG Export Plug-In . SVG Version: 6.00 Build 0)  -->
<svg version="1.1" xmlns="http://www.w3.org/2000/svg" xmlns:xlink="http://www.w3.org/1999/xlink" x="0px" y="0px"
	 viewBox="0 0 2200 2200" style="enable-background:new 0 0 2200 2200;" xml:space="preserve">
<g id="background">
	<rect y="0" style="fill:#FFFFFF;" width="2200" height="2200"/>
</g>
<g id="Objects">
	<g>
		<g>
			<path d="M775.668,1171.251c-0.708-24.081-1.109-47.841-1.244-71.167C774.488,1123.326,774.892,1147.095,775.668,1171.251z"/>
		</g>
		<g>
			<path d="M1332.764,1356.234c-18.895,11.612-37.677,22.864-56.252,33.731C1295.209,1379.078,1313.983,1367.83,1332.764,1356.234z"
				/>
		</g>
		<g>
			<path d="M1214.25,775.694c21.212,11.428,41.991,22.962,62.262,34.51C1256.35,798.637,1235.561,787.101,1214.25,775.694z"/>
		</g>
		<g>
			<path d="M1895.295,1391.767c-39.561-100.39-121.85-200.526-219.602-291.634c67.718-63.621,128.261-132.295,175.766-205.448
				c22.719-36.526,42.66-75.563,53.706-117.403c20.863-77.543,1.631-149.099-70.954-189.776
				c-87.54-47.625-209.457-39.415-305.257-24.343c-40.253,6.443-82.261,15.629-125.47,27.295
				c-16.292-60.527-35.921-117.693-59.016-170.072c21.92-19.148,31.276-49.891,25.691-78.663
				c-4.428-22.814-17.529-41.575-44.112-55.127c-15.739-8.022-39.186-10.677-60.754-2.885
				c-22.932-28.816-49.754-54.312-82.102-72.095c-83.181-44.422-159.799-5.714-214.512,61.806
				c-67.16,84.456-112.736,205.789-142.761,335.998c-88.957-26.835-178.701-44.93-265.806-49.493
				c-42.992-1.413-86.77,0.837-128.527,12.19C354,592.82,301.647,645.253,302.712,728.452
				c2.526,99.625,70.594,201.102,131.546,276.532c26.408,31.972,55.412,63.639,86.608,94.778
				c-49.364,49.455-93.039,100.412-129.234,152.043c-21.17-8.326-52.329-7.793-75.904,10.93
				c-20.667,16.403-31.286,44.493-28.353,70.855c2.397,21.638,14.001,41.874,30.876,55.27
				c-10.089,29.463-16.216,60.065-15.56,91.336c3.119,94.248,74.951,141.247,160.781,154.87
				c106.721,15.934,234.586-5.262,362.364-44.364c21.238,90.456,50.44,177.225,90.041,254.942
				c20.273,37.938,44.11,74.727,74.821,105.212c56.723,56.839,128.307,75.962,199.828,33.44
				c85.015-52,138.862-161.687,173.709-252.189c14.584-38.18,27.662-79.267,39.185-122.642
				c42.613,11.469,84.583,20.767,125.516,27.657c97.178,15.346,225.45,23.981,312.63-28.679
				C1921.626,1558.617,1926.413,1472.91,1895.295,1391.767z M1658.625,580.878c83.698-2.94,200.79,9.409,229.998,102.764
				c25.027,84.848-34.183,189.46-82.236,257.529c-39.4,54.577-85.018,106.36-134.785,155.165
				c-66.883-61.894-140.762-119.54-213.029-170.164c-7.866-104.09-23.096-205.992-46.11-300.631
				C1497.48,600.831,1580.688,584.913,1658.625,580.878z M1414.765,1303.853c-7.224,88.729-19.554,176.543-37.798,259.572
				c-28.108-9.056-55.958-18.806-83.511-28.958c-50.926-19.093-104.771-41.936-160.004-68.022
				c52.202-25.731,100.591-51.859,143.059-76.48c-45.158,25.908-93.421,51.665-143.78,76.139
				c-116.071-54.867-238.238-124.048-352.317-202.857c-2.226-31.113-3.778-61.858-4.747-91.995
				c0.885,30.102,2.255,60.709,4.205,91.62c-73.23-50.62-143.114-105.205-205.897-162.52c21.897-19.814,44.265-39.058,66.834-57.844
				c41.998-34.557,88.703-69.766,138.911-104.556c-3.817,58.073-5.385,113.044-5.296,162.133
				c0.143-52.062,1.968-106.737,5.952-162.586c105.552-73.087,226.548-144.296,351.838-203.687
				c28.055,13.628,55.454,27.654,82.035,41.883c-26.509-14.283-53.698-28.399-81.44-42.164
				c80.453-38.109,162.668-71.338,243.695-97.052c6.211,28.87,11.693,57.864,16.677,86.802
				c8.928,53.649,16.068,111.702,21.093,172.578c-48.384-32.343-95.206-61.185-137.764-85.653
				c45.016,26.155,91.453,55.073,137.828,86.447c10.52,127.968,11.691,268.375,0.475,406.59
				c-27.221,18.399-54.643,36.069-82.051,52.992C1359.95,1339.525,1387.372,1322.059,1414.765,1303.853z M1083.925,1489.091
				c-81.615,37.238-167.665,70.357-254.177,94.885c-22.004-87.203-36.338-178.298-44.888-267.604
				C879.261,1381.089,980.7,1439.673,1083.925,1489.091z M784.873,883.716c8.558-89.293,22.902-180.368,44.915-267.547
				c86.671,24.587,172.877,57.794,254.618,95.12C981.947,760.387,880.035,818.831,784.873,883.716z M1458.667,927.438
				c73.016,52.034,144.683,109.962,209.152,172.581c-64.522,62.817-135.867,120.663-209.6,173.127
				C1466.936,1159.837,1467.282,1042.323,1458.667,927.438z M926.924,360.599c87.228-153.632,206.251-205.925,314.836-62.929
				c-18.676,16.661-28.131,43.26-25.344,68.309c2.92,26.357,19.493,50.641,42.621,63.006c17.391,9.304,38.437,11.448,57.377,6.289
				c21.771,53.374,38.46,108.876,51.915,165.152c-91.347,27.069-187.26,64.616-282.726,110.293
				c-81.904-38.51-167.797-73.223-254.505-99.719C854.134,521.168,885.381,435.612,926.924,360.599z M384.766,883.828
				c-121.49-193.253-49.564-312.384,175.085-311.374c85.761,1.543,175.509,17.284,264.854,42.276
				c-20.177,88.908-33.169,181.76-40.881,269.7c-86.212,58.857-166.846,122.998-237.299,190.248
				C482.618,1013.407,427.228,949.306,384.766,883.828z M559.849,1627.639c-171.151,1.235-274.846-70.934-217.914-225.958
				c24.101,7.921,52.159,3.941,71.878-12.301c23.078-19.028,33.027-50.574,27.307-80.047c-3.047-15.7-10.202-29.48-23.031-40.964
				c38.218-51.542,82.176-98.81,128.95-143.097c70.359,67.009,150.598,131.226,236.723,190.346
				c7.607,90.039,20.481,181.619,40.854,269.808C735.3,1610.392,645.583,1626.109,559.849,1627.639z M1284.058,1835.547
				c-106.617,201.84-245.751,199.116-357.2,4.059c-41.544-75.042-72.786-160.638-95.815-250.508
				c87.094-26.983,174.01-62.162,254.031-99.457c94.361,45.107,190.192,82.545,283.485,109.998
				C1347.437,1685.77,1319.586,1765.928,1284.058,1835.547z M1705.116,1618.963c-9.84,0.597-21.148,0.537-30.962,0.576
				c-88.929-1.947-176.523-19.8-261.876-45.17c22.232-92.643,37.671-194.48,45.846-299.994
				c74.303-51.677,147.311-108.705,213.611-170.549c66.278,64.867,124.748,134.706,168.94,208.189
				C1935.295,1473.204,1913.889,1608.5,1705.116,1618.963z"/>
		</g>
		<g>
			<path d="M1163.143,979.499c-35.149-17.917-93.237-19.864-136.25,14.296c-34.644,27.496-52.445,74.583-47.529,118.775
				c4.895,44.181,32.676,84.889,71.446,105.616c43.939,23.507,101.806,19.78,140.503-12.095
				c38.686-31.896,55.364-84.777,45.774-134.182C1229.664,1033.664,1207.703,1002.216,1163.143,979.499z"/>
		</g>
	</g>
</g>
</svg>
